<?xml version="1.0" standalone="no"?><!DOCTYPE svg PUBLIC "-//W3C//DTD SVG 1.1//EN" "http://www.w3.org/Graphics/SVG/1.1/DTD/svg11.dtd"><svg t="1536919025361" class="icon" style="" viewBox="0 0 1024 1024" version="1.1" xmlns="http://www.w3.org/2000/svg" p-id="14646" xmlns:xlink="http://www.w3.org/1999/xlink" width="128" height="128"><defs><style type="text/css"></style></defs><path d="M512 353.28c16.384 0 29.184 13.312 29.184 29.184l0 278.528c0 16.384-13.312 29.184-29.184 29.184s-29.184-13.312-29.184-29.184L482.816 382.464C482.816 366.08 495.616 353.28 512 353.28z" p-id="14647" fill="#2c2c2c"></path><path d="M512 192c16.384 0 29.184 13.312 29.184 29.184l0 58.368c0 16.384-13.312 29.184-29.184 29.184s-29.184-13.312-29.184-29.184L482.816 221.184C482.816 205.312 495.616 192 512 192z" p-id="14648" fill="#2c2c2c"></path><path d="M884.736 411.648c7.68 0 14.848 3.072 20.48 8.704 11.264 11.264 11.264 30.208 0 41.472L532.48 834.56c-11.264 11.264-30.208 11.264-41.472 0-11.264-11.264-11.264-30.208 0-41.472l372.736-372.736C869.888 414.72 877.568 411.648 884.736 411.648z" p-id="14649" fill="#2c2c2c"></path><path d="M139.264 411.648c7.68 0 14.848 3.072 20.48 8.704l372.736 372.736c11.264 11.264 11.264 30.208 0 41.472-11.264 11.264-30.208 11.264-41.472 0L118.272 461.824c-11.264-11.264-11.264-30.208 0-41.472C123.904 414.72 131.584 411.648 139.264 411.648z" p-id="14650" fill="#2c2c2c"></path></svg>