<?xml version="1.0" standalone="no"?><!DOCTYPE svg PUBLIC "-//W3C//DTD SVG 1.1//EN" "http://www.w3.org/Graphics/SVG/1.1/DTD/svg11.dtd"><svg t="1536646314091" class="icon" style="" viewBox="0 0 1024 1024" version="1.1" xmlns="http://www.w3.org/2000/svg" p-id="1451" xmlns:xlink="http://www.w3.org/1999/xlink" width="200" height="200"><defs><style type="text/css"></style></defs><path d="M512 61.44a20.48 20.48 0 0 1 20.48 20.48v81.92a20.48 20.48 0 0 1-40.96 0V81.92a20.48 20.48 0 0 1 20.48-20.48zM266.24 532.48l163.84-266.24h40.96l-163.84 266.24zM757.76 532.48l-163.84-266.24h-40.96l163.84 266.24z" p-id="1452" fill="#1296db"></path><path d="M757.76 512L531.2512 942.08l-26.4192-12.0832L724.992 507.0848z" p-id="1453" fill="#1296db"></path><path d="M266.24 512l239.2064 430.08 27.0336-12.0832L305.9712 505.856z" p-id="1454" fill="#1296db"></path><path d="M122.88 491.52h778.24a20.48 20.48 0 1 1 0 40.96H122.88a20.48 20.48 0 0 1 0-40.96z" p-id="1455" fill="#1296db"></path><path d="M778.24 245.76H245.76L61.44 512l82.7392 82.7392 20.48-20.48L102.4 512l163.84-225.28h491.52l163.84 225.28-409.6 409.6L193.7408 603.3408l-20.48 20.48L512 962.56l450.56-450.56-184.32-266.24zM747.52 75.3664A20.48 20.48 0 0 1 755.0976 102.4l-40.96 70.8608a20.48 20.48 0 1 1-35.4304-20.48l40.96-70.8608a20.48 20.48 0 0 1 27.8528-6.5536zM276.48 84.1728a18.0224 18.0224 0 0 0-7.5776 25.8048l40.96 65.3312a20.48 20.48 0 0 0 28.0576 6.9632 18.0224 18.0224 0 0 0 7.5776-25.8048l-40.96-65.3312a20.48 20.48 0 0 0-28.0576-6.9632z" p-id="1456" fill="#1296db"></path></svg>