<?xml version="1.0" standalone="no"?><!DOCTYPE svg PUBLIC "-//W3C//DTD SVG 1.1//EN" "http://www.w3.org/Graphics/SVG/1.1/DTD/svg11.dtd"><svg t="1536563523420" class="icon" style="" viewBox="0 0 1024 1024" version="1.1" xmlns="http://www.w3.org/2000/svg" p-id="1971" xmlns:xlink="http://www.w3.org/1999/xlink" width="200" height="200"><defs><style type="text/css"></style></defs><path d="M889.6 857.6C972.8 768 1024 646.4 1024 512 1024 230.4 793.6 0 512 0S0 230.4 0 512s230.4 512 512 512c134.4 0 256-51.2 345.6-134.4l123.733333 123.733333c8.533333 8.533333 21.333333 8.533333 29.866667 0s8.533333-21.333333 0-29.866666l-121.6-125.866667zM44.8 512C44.8 253.866667 253.866667 44.8 512 44.8c258.133333 0 467.2 209.066667 467.2 467.2 0 258.133333-209.066667 467.2-467.2 467.2-258.133333 0-467.2-209.066667-467.2-467.2z" p-id="1972" fill="#8a8a8a"></path></svg>