<?xml version="1.0" standalone="no"?><!DOCTYPE svg PUBLIC "-//W3C//DTD SVG 1.1//EN" "http://www.w3.org/Graphics/SVG/1.1/DTD/svg11.dtd"><svg t="1536804556431" class="icon" style="" viewBox="0 0 1024 1024" version="1.1" xmlns="http://www.w3.org/2000/svg" p-id="1145" xmlns:xlink="http://www.w3.org/1999/xlink" width="128" height="128"><defs><style type="text/css"></style></defs><path d="M49.5616 465.7152c12.73856 69.09952 38.42048 139.75552 75.65312 206.97088 72.9088 131.52256 180.06016 230.97344 289.66912 271.36 28.4672 13.5168 61.72672 20.15232 96.8704 19.29216a215.57248 215.57248 0 0 0 97.56672-19.98848 400.46592 400.46592 0 0 0 67.33824-32.68608c20.48-12.288 40.67328-26.50112 60.37504-42.5984a20.48 20.48 0 0 0-25.92768-31.70304c-18.14528 14.82752-36.74112 27.93472-55.5008 39.19872a370.4832 370.4832 0 0 1-62.09536 30.06464 178.9952 178.9952 0 0 1-81.75616 16.7936c-29.9008 0.65536-56.85248-4.7104-81.1008-16.13824-101.41696-37.43744-201.19552-130.048-269.59872-253.46048-35.14368-63.40608-59.26912-129.8432-71.2704-194.56a20.48 20.48 0 0 0-40.26368 7.45472z m730.64448 363.35616a698.94144 698.94144 0 0 0 117.1456-156.38528c9.6256-17.408 18.47296-35.0208 26.58304-52.8384a705.3312 705.3312 0 0 0 25.47712-64.22528 20.48 20.48 0 1 0-38.78912-13.18912 664.3712 664.3712 0 0 1-24.00256 60.49792c-7.61856 16.7936-15.9744 33.46432-25.10848 49.88928a658.0224 658.0224 0 0 1-110.1824 147.2512 20.48 20.48 0 1 0 28.8768 28.99968zM163.71712 111.8208C73.5232 161.792 30.18752 274.80064 42.1888 412.0576a20.48 20.48 0 1 0 40.79616-3.56352c-10.73152-122.71616 26.54208-219.87328 100.59776-260.9152 84.54144-46.85824 205.49632-13.80352 313.83552 85.77024a20.48 20.48 0 0 0 27.72992 0c108.3392-99.5328 229.29408-132.62848 313.83552-85.77024 86.50752 47.96416 122.14272 172.56448 91.7504 321.1264a20.48 20.48 0 1 0 40.09984 8.23296c33.62816-164.2496-7.168-307.07712-111.98464-365.1584-98.59072-54.6816-230.85056-21.62688-347.58656 79.0528-116.736-100.67968-248.95488-133.7344-347.5456-79.0528z" p-id="1146" fill="#d81e06"></path><path d="M274.2272 206.6432a155.27936 155.27936 0 0 0-44.81024 25.84576 20.48 20.48 0 0 0 26.09152 31.58016 114.4832 114.4832 0 0 1 33.01376-19.0464 20.48 20.48 0 1 0-14.336-38.37952zM192.38912 275.98848c-23.38816 38.912-34.48832 89.21088-32.68608 145.24416a20.48 20.48 0 1 0 40.96-1.35168c-1.55648-48.57856 7.7824-91.17696 26.8288-122.79808a20.48 20.48 0 0 0-35.10272-21.0944z" p-id="1147" fill="#d81e06"></path></svg>