<?xml version="1.0" standalone="no"?><!DOCTYPE svg PUBLIC "-//W3C//DTD SVG 1.1//EN" "http://www.w3.org/Graphics/SVG/1.1/DTD/svg11.dtd"><svg t="1536804571008" class="icon" style="" viewBox="0 0 1024 1024" version="1.1" xmlns="http://www.w3.org/2000/svg" p-id="1353" xmlns:xlink="http://www.w3.org/1999/xlink" width="128" height="128"><defs><style type="text/css"></style></defs><path d="M512 573.44c0-203.9808 64.18432-266.24 212.5824-266.24h115.38432a20.48 20.48 0 0 0 0-40.96H724.5824c-170.76224 0-253.5424 80.2816-253.5424 307.2a20.48 20.48 0 1 0 40.96 0z" p-id="1354"></path><path d="M779.71456 354.14016a20.48 20.48 0 0 0 28.95872 28.99968l71.68-71.72096a34.93888 34.93888 0 0 0 0-49.39776l-71.68-71.68a20.48 20.48 0 0 0-28.95872 28.95872L847.13472 286.72l-67.42016 67.42016zM71.59808 647.5776a443.5968 443.5968 0 0 0 140.77952 214.50752 445.11232 445.11232 0 0 0 406.85568 87.73632c28.59008-8.02816 56.36096-18.8416 82.82112-32.3584a20.48 20.48 0 1 0-18.67776-36.49536c-24.00256 12.288-49.19296 22.1184-75.1616 29.40928a404.15232 404.15232 0 0 1-369.50016-79.6672 402.6368 402.6368 0 0 1-127.83616-194.7648 20.48 20.48 0 1 0-39.3216 11.63264z m679.81312 240.39424a442.69568 442.69568 0 0 0 88.80128-80.81408 446.21824 446.21824 0 0 0 88.22784-167.7312c9.05216-32.768 14.29504-66.51904 15.64672-100.51584a20.48 20.48 0 1 0-40.91904-1.6384 404.56192 404.56192 0 0 1-37.51936 154.58304 407.51104 407.51104 0 0 1-137.46176 162.36544 20.48 20.48 0 0 0 23.22432 33.75104zM657.48992 104.16128a444.416 444.416 0 0 0-192.512-27.81184 20.48 20.48 0 1 0 3.11296 40.83712 403.456 403.456 0 0 1 174.81728 25.23136 20.48 20.48 0 0 0 14.58176-38.25664z m-252.47744-19.12832A443.71968 443.71968 0 0 0 157.45024 234.2912a443.5968 443.5968 0 0 0-103.2192 317.27616 20.48 20.48 0 0 0 40.87808-2.82624A402.6368 402.6368 0 0 1 188.8256 260.58752a402.75968 402.75968 0 0 1 224.78848-135.49568 20.48 20.48 0 1 0-8.6016-40.05888z" p-id="1355"></path></svg>